<?xml version="1.0" encoding="UTF-8"?>
<svg width="72px" height="73px" viewBox="0 0 72 73" version="1.1" xmlns="http://www.w3.org/2000/svg" xmlns:xlink="http://www.w3.org/1999/xlink">
    <!-- Generator: Sketch 54.1 (76490) - https://sketchapp.com -->
    <title>light-bulb</title>
    <desc>Created with Sketch.</desc>
    <g id="Page-1" stroke="none" stroke-width="1" fill="none" fill-rule="evenodd">
        <g id="light-bulb" fill="#000000">
            <path d="M51.9941,19.1518 C51.3941,18.4998 51.4381,17.4838 52.0921,16.8848 L58.5931,10.4688 C58.6881,10.3408 58.8021,10.2268 58.9311,10.1308 C59.6771,9.5718 60.7341,9.7228 61.2941,10.4688 C61.8531,11.2148 61.7021,12.2738 60.9561,12.8328 L54.4551,19.2498 C54.1431,19.5678 53.7191,19.7498 53.2731,19.7558 C52.8281,19.7498 52.4031,19.5678 52.0921,19.2498 C52.0571,19.2178 52.0251,19.1858 51.9941,19.1518 L51.9941,19.1518 Z M10.1311,12.4958 C9.5721,11.7498 9.7231,10.6908 10.4691,10.1308 C11.2151,9.5718 12.2731,9.7228 12.8331,10.4688 L19.3341,16.8848 C19.3671,16.9168 19.4001,16.9488 19.4311,16.9828 C20.0301,17.6348 19.9861,18.6508 19.3341,19.2498 C19.3031,19.2828 19.2701,19.3158 19.2361,19.3468 C18.5841,19.9458 17.5691,19.9018 16.9701,19.2498 L10.4691,12.8328 C10.3411,12.7368 10.2271,12.6238 10.1311,12.4958 L10.1311,12.4958 Z M71.4261,35.3758 C71.4261,36.3078 70.6701,37.0638 69.7371,37.0638 L60.6191,37.0638 C59.6861,37.0638 58.9311,36.3078 58.9311,35.3758 C58.9311,34.4428 59.6861,33.6858 60.6191,33.6858 L69.7371,33.6858 C70.6701,33.6858 71.4261,34.4428 71.4261,35.3758 L71.4261,35.3758 Z M12.4951,35.3758 C12.4951,36.3078 11.7391,37.0638 10.8061,37.0638 L1.6881,37.0638 C0.7561,37.0638 0.0001,36.3078 0.0001,35.3758 C0.0001,34.4428 0.7561,33.6858 1.6881,33.6858 L10.8061,33.6858 C11.7391,33.6858 12.4951,34.4428 12.4951,35.3758 L12.4951,35.3758 Z M34.0241,10.8058 L34.0241,1.6888 C34.0241,0.7558 34.7801,0.0008 35.7131,0.0008 C36.6451,0.0008 37.4011,0.7558 37.4011,1.6888 L37.4011,10.8058 C37.4011,11.7388 36.6451,12.4958 35.7131,12.4958 C34.7801,12.4958 34.0241,11.7388 34.0241,10.8058 L34.0241,10.8058 Z M42.4671,51.2478 C41.9271,51.5588 41.6011,52.1428 41.6231,52.7668 L41.6231,54.7938 L29.8031,54.7938 L29.8031,52.7668 C29.8371,52.1178 29.5131,51.5028 28.9591,51.1628 C23.1661,48.6278 19.4451,42.8808 19.5031,36.5568 C19.6551,28.0838 26.2471,21.1268 34.7001,20.5158 L35.7131,20.5158 C44.5811,20.5608 51.7851,27.6898 51.9231,36.5568 C51.9271,42.8848 48.2281,48.6308 42.4671,51.2478 L42.4671,51.2478 Z M29.8031,60.7038 L41.6231,60.7038 L41.6231,58.1708 L29.8031,58.1708 L29.8031,60.7038 Z M35.7131,69.1458 C32.8621,69.0188 30.4951,66.8998 30.0561,64.0808 L41.3691,64.0808 C40.9301,66.8998 38.5631,69.0188 35.7131,69.1458 L35.7131,69.1458 Z M49.0531,22.3738 C45.1541,18.6788 39.8901,16.7818 34.5311,17.1388 C24.2741,17.7578 16.2401,26.1978 16.1261,36.4718 C16.0411,43.8178 20.5151,50.4878 26.4261,53.7798 L26.4261,63.4048 C26.4261,68.5338 30.5841,72.6918 35.7131,72.6918 C40.8421,72.6918 45.0001,68.5338 45.0001,63.4048 L45.0001,53.8648 C51.2351,50.3058 55.1461,43.7348 55.3001,36.5568 C55.2261,31.1768 52.9721,26.0578 49.0531,22.3738 L49.0531,22.3738 Z" id="Fill-1"></path>
        </g>
    </g>
</svg>