<?xml version="1.0" encoding="UTF-8"?>
<svg width="55px" height="57px" viewBox="0 0 55 57" version="1.1" xmlns="http://www.w3.org/2000/svg" xmlns:xlink="http://www.w3.org/1999/xlink">
    <!-- Generator: Sketch 54.1 (76490) - https://sketchapp.com -->
    <title>logo</title>
    <desc>Created with Sketch.</desc>
    <g id="Page-1" stroke="none" stroke-width="1" fill="none" fill-rule="evenodd">
        <g id="logo" transform="translate(0.000200, -0.000100)" fill="#FFFFFF">
            <path d="M54.417,-2.48689958e-13 L54.417,56.694 L47.084,56.694 L47.084,23.233 C47.084,22.076 47.109,20.16 47.161,17.483 C47.214,14.806 47.239,11.939 47.239,8.876 L31.051,56.694 L23.443,56.694 L7.101,8.876 L7.101,10.613 C7.101,12.003 7.14,14.12 7.217,16.962 C7.294,19.804 7.333,21.896 7.333,23.233 L7.333,56.694 L1.84741111e-13,56.694 L1.84741111e-13,-2.48689958e-13 L11.002,-2.48689958e-13 L27.305,47.934 L43.492,-2.48689958e-13 L54.417,-2.48689958e-13 Z" id="Fill-1"></path>
        </g>
    </g>
</svg>