<?xml version="1.0" encoding="UTF-8"?>
<svg width="34px" height="65px" viewBox="0 0 34 65" version="1.1" xmlns="http://www.w3.org/2000/svg" xmlns:xlink="http://www.w3.org/1999/xlink">
    <!-- Generator: Sketch 54.1 (76490) - https://sketchapp.com -->
    <title>mouse</title>
    <desc>Created with Sketch.</desc>
    <g id="Page-1" stroke="none" stroke-width="1" fill="none" fill-rule="evenodd">
        <g id="mouse" fill="#000000">
            <path d="M23.73,57.0388 L16.244,62.9498 L8.757,56.8428 C8.757,56.8428 8.363,56.4478 7.772,57.0388 C7.181,57.6298 7.575,58.0238 7.575,58.0238 L16.244,64.9198 L24.912,58.0238 C24.912,58.0238 25.208,57.5318 24.715,57.0388 C24.223,56.5468 23.73,57.0388 23.73,57.0388 L23.73,57.0388 Z M30.678,16.3448 C30.678,8.7188 24.474,2.5148 16.848,2.5148 L16.345,2.5148 C8.719,2.5148 2.515,8.7188 2.515,16.3448 L2.515,35.2038 C2.515,42.8298 8.719,49.0338 16.345,49.0338 L16.848,49.0338 C24.474,49.0338 30.678,42.8298 30.678,35.2038 L30.678,16.3448 Z M33.192,16.3448 L33.192,35.2038 C33.192,44.2168 25.86,51.5488 16.848,51.5488 L16.345,51.5488 C7.332,51.5488 0,44.2168 0,35.2038 L0,16.3448 C0,7.3328 7.332,-0.0002 16.345,-0.0002 L16.848,-0.0002 C25.86,-0.0002 33.192,7.3328 33.192,16.3448 L33.192,16.3448 Z M18.598,14.0818 C18.598,14.9598 18.64,15.8408 18.588,16.7168 C18.514,17.9518 17.64,18.7488 16.469,18.7318 C15.353,18.7168 14.479,17.9448 14.437,16.7688 C14.374,15.0148 14.375,13.2548 14.429,11.4998 C14.467,10.2918 15.419,9.4398 16.543,9.4598 C17.667,9.4788 18.508,10.3348 18.595,11.5718 C18.624,11.9878 18.606,12.4078 18.608,12.8268 C18.609,13.2448 18.608,13.6628 18.608,14.0818 L18.598,14.0818 Z" id="Fill-1"></path>
        </g>
    </g>
</svg>