<?xml version="1.0" encoding="UTF-8"?>
<svg width="289px" height="294px" viewBox="0 0 289 294" version="1.1" xmlns="http://www.w3.org/2000/svg" xmlns:xlink="http://www.w3.org/1999/xlink">
    <!-- Generator: Sketch 54.1 (76490) - https://sketchapp.com -->
    <title>light-bulb-solid</title>
    <desc>Created with Sketch.</desc>
    <g id="Page-1" stroke="none" stroke-width="1" fill="none" fill-rule="evenodd">
        <g id="light-bulb-solid" fill="#000000">
            <path d="M181.8441,217.6674 L181.8441,256.2194 C181.8441,276.9454 165.0411,293.7484 144.3151,293.7484 C123.5891,293.7484 106.7871,276.9454 106.7871,256.2194 L106.7871,217.3264 C82.9041,204.0214 64.8231,177.0674 65.1631,147.3864 C65.6251,105.8664 98.0921,71.7604 139.5391,69.2574 C161.1941,67.8144 182.4671,75.4824 198.2201,90.4104 C214.0581,105.3024 223.1701,125.9894 223.4671,147.7274 C222.8451,176.7344 207.0431,203.2864 181.8441,217.6674 L181.8441,217.6674 Z" id="light-bulb-path"></path>
            <path d="M43.6691,149.7744 L6.8231,149.7744 C3.0551,149.7744 0.0001,146.7194 0.0001,142.9504 C0.0001,139.1824 3.0551,136.1274 6.8231,136.1274 L43.6701,136.1274 C47.4391,136.1274 50.4931,139.1824 50.4931,142.9504 C50.4931,146.7194 47.4381,149.7744 43.6691,149.7744 L43.6691,149.7744 Z" id="light-path4"></path>
            <path d="M42.3051,40.9414 C45.3201,38.6804 49.5981,39.2904 51.8581,42.3054 L78.1281,68.2344 C78.2651,68.3594 78.3961,68.4914 78.5221,68.6284 C80.9431,71.2664 80.7661,75.3664 78.1281,77.7874 C78.0031,77.9234 77.8711,78.0554 77.7341,78.1804 C75.0971,80.6014 70.9961,80.4254 68.5761,77.7874 L42.3051,51.8574 C41.7881,51.4704 41.3281,51.0104 40.9401,50.4944 C38.6801,47.4794 39.2901,43.2014 42.3051,40.9414 L42.3051,40.9414 Z" id="light-path2"></path>
            <path d="M137.4921,6.8234 C137.4921,3.0554 140.5471,0.0004 144.3151,0.0004 C148.0841,0.0004 151.1391,3.0554 151.1391,6.8234 L151.1391,43.6704 C151.1391,47.4384 148.0841,50.4934 144.3151,50.4934 C140.5471,50.4934 137.4921,47.4384 137.4921,43.6704 L137.4921,6.8234 Z" id="light-path3"></path>
            <path d="M210.5011,68.2334 L236.7721,42.3054 C237.1601,41.7884 237.6201,41.3284 238.1371,40.9404 C241.1521,38.6794 245.4291,39.2904 247.6901,42.3054 C249.9511,45.3194 249.3401,49.5974 246.3251,51.8574 L220.0551,77.7874 C218.7951,79.0724 217.0781,79.8084 215.2781,79.8344 C213.4791,79.8084 211.7621,79.0724 210.5021,77.7874 C210.3661,77.6614 210.2341,77.5304 210.1081,77.3924 C207.6871,74.7544 207.8631,70.6544 210.5011,68.2334 L210.5011,68.2334 Z" id="light-path5"></path>
            <path d="M281.8071,149.7744 L244.9611,149.7744 C241.1921,149.7744 238.1381,146.7194 238.1381,142.9504 C238.1381,139.1824 241.1921,136.1274 244.9611,136.1274 L281.8071,136.1274 C285.5761,136.1274 288.6301,139.1824 288.6301,142.9504 C288.6301,146.7194 285.5761,149.7744 281.8071,149.7744 L281.8071,149.7744 Z" id="light-path1"></path>
        </g>
    </g>
</svg>